<svg id="Layer_1" data-name="Layer 1" xmlns="http://www.w3.org/2000/svg" viewBox="0 0 394 338">
  <defs>
    <style>
      .cls-1 {
        font-size: 250px;
        fill: #010101;
        font-family: Roboto-Black, Roboto;
        font-weight: 800;
      }
    </style>
  </defs>
  <g>
    <path d="M274.68,4.68a111.67,111.67,0,0,0-77.63,31.11A111.67,111.67,0,0,0,119.42,4.68C56.36,4.68,5.05,57.21,5.05,121.79c0,37.44,31.91,84.09,94.84,138.67A900.86,900.86,0,0,0,193,330.52a7.47,7.47,0,0,0,8.06,0,899.64,899.64,0,0,0,93.13-70.06c62.93-54.58,94.84-101.23,94.84-138.67,0-64.58-51.3-117.11-114.37-117.11ZM284.52,249a896.12,896.12,0,0,1-87.47,66.22,895.51,895.51,0,0,1-87.34-66.11c-58.66-50.88-89.66-94.91-89.66-127.34,0-56.31,44.58-102.11,99.37-102.11,27.54,0,53.15,11.32,72.12,31.87a7.5,7.5,0,0,0,11,0c19-20.55,44.58-31.87,72.12-31.87,54.79,0,99.37,45.8,99.37,102.11,0,32.41-31,76.4-89.53,127.23Zm0,0"/>
    <path d="M265.59,46.17l-.29,0A7.5,7.5,0,1,0,267.93,61l.14,0a7.5,7.5,0,1,0-2.48-14.79Zm0,0"/>
    <path d="M334.34,74.72a72.19,72.19,0,0,0-36.83-26.53,7.5,7.5,0,1,0-4.39,14.35c24,7.34,40.7,30.8,40.7,57a7.5,7.5,0,0,0,15,0,75.67,75.67,0,0,0-14.48-44.86Zm0,0"/>
  </g>
  <text class="cls-1" transform="translate(124.66 253.23)">1</text>
</svg>
