<svg xmlns="http://www.w3.org/2000/svg" viewBox="0 0 524 512">
  <defs>
    <style>
      .cls-1 {
        fill: #f0d355;
      }

      .cls-2 {
        opacity: 0.1;
      }

      .cls-3 {
        fill: #414042;
      }

      .cls-4 {
        font-size: 250px;
        font-family: Roboto-Black, Roboto;
        font-weight: 800;
      }
    </style>
  </defs>
  <g id="Layer_1" data-name="Layer 1">
    <path class="cls-1" d="M400.39,494.63a22.09,22.09,0,0,1-10.06-2.42L261,426.23l-129.33,66a22.15,22.15,0,0,1-31.95-23.09L122,324.33,19.68,220.43A22.14,22.14,0,0,1,31.89,183L175,159.69,241.27,29.48a22.13,22.13,0,0,1,39.46,0L347,159.69,490.11,183a22.14,22.14,0,0,1,12.21,37.39L400,324.33l22.25,144.79a22.15,22.15,0,0,1-21.89,25.51Z"/>
    <path d="M400.39,502.93a30.61,30.61,0,0,1-13.83-3.32L261,435.55,135.45,499.61a30.68,30.68,0,0,1-13.84,3.32,30.45,30.45,0,0,1-30.09-35.07l21.61-140.67L13.76,226.26a30.45,30.45,0,0,1,16.8-51.41l139-22.68L233.86,25.71a30.45,30.45,0,0,1,54.28,0l64.35,126.46,139,22.68a30.45,30.45,0,0,1,16.8,51.41L408.87,327.19l21.62,140.67a30.45,30.45,0,0,1-30.1,35.07ZM261,416.91l133.1,67.9a13.91,13.91,0,0,0,6.29,1.51,13.83,13.83,0,0,0,13.68-15.94l-22.88-148.9L496.4,214.6a13.83,13.83,0,0,0-7.63-23.36l-147.26-24-68.18-134a13.83,13.83,0,0,0-24.66,0l-68.18,134-147.26,24A13.83,13.83,0,0,0,25.6,214.6L130.81,321.48l-22.88,148.9a13.84,13.84,0,0,0,20,14.43Z"/>
    <g class="cls-2">
      <path class="cls-3" d="M155.14,479.09a22.15,22.15,0,0,1-8.92-21.31L168.47,313,66.18,209.09a22.11,22.11,0,0,1,.73-31.76l-35,5.71a22.14,22.14,0,0,0-12.21,37.39L122,324.33,99.72,469.12a22.14,22.14,0,0,0,31.95,23.09l24.45-12.47C155.79,479.53,155.46,479.32,155.14,479.09Z"/>
    </g>
  </g>
  <g id="Layer_2" data-name="Layer 2">
    <text class="cls-4" transform="translate(188.61 371.5)">1</text>
  </g>
</svg>
